<?xml version="1.0" encoding="UTF-8"?>
<svg version="1.1" xmlns="http://www.w3.org/2000/svg" width="268" height="268">
<path d="M0 0 C88.44 0 176.88 0 268 0 C268 88.44 268 176.88 268 268 C179.56 268 91.12 268 0 268 C0 179.56 0 91.12 0 0 Z " fill="#191919" transform="translate(0,0)"/>
<path d="M0 0 C0.6704837 0.00209473 1.34096741 0.00418945 2.0317688 0.00634766 C23.62381077 0.14451421 45.77640661 5.17965713 61.9375 20.5 C73.6512564 32.45818471 73.6512564 32.45818471 74.23046875 38.61328125 C74.19566406 39.66902344 74.16085938 40.72476563 74.125 41.8125 C74.08439453 43.41544922 74.08439453 43.41544922 74.04296875 45.05078125 C74.00816406 45.85902344 73.97335938 46.66726562 73.9375 47.5 C73.38320312 47.74234375 72.82890625 47.9846875 72.2578125 48.234375 C71.53335938 48.56953125 70.80890625 48.9046875 70.0625 49.25 C69.34320313 49.57484375 68.62390625 49.8996875 67.8828125 50.234375 C65.50872869 51.77895965 64.88237007 52.84581724 63.9375 55.5 C63.52315852 58.05248235 63.52315852 58.05248235 63.375 60.6875 C63.03686909 65.40063091 63.03686909 65.40063091 61.9375 66.5 C61.45164138 68.86440731 61.45164138 68.86440731 61.9375 71.5 C64.00882831 73.77831933 64.00882831 73.77831933 66.75 75.6875 C67.64332031 76.36167969 68.53664062 77.03585938 69.45703125 77.73046875 C71.26203189 79.01813062 73.09265472 80.27010314 74.9375 81.5 C78.47507279 90.78794832 78.22260985 101.09225611 78.25 110.875 C78.25809692 112.67493408 78.25809692 112.67493408 78.26635742 114.51123047 C78.16654387 126.99747196 76.0210909 136.10232886 68.5 146.125 C62.77940256 154.15347796 60.08940895 163.02746574 58.9375 172.75 C57.09168952 187.64951519 47.18236979 197.35086746 35.9375 206.5 C35.32519531 207.02335938 34.71289062 207.54671875 34.08203125 208.0859375 C21.27735887 218.48808372 5.79851701 219.69650426 -10.0625 218.5 C-27.24197815 216.04121967 -41.13590903 203.62460803 -51.3125 190.140625 C-56.30565892 182.60630484 -59.21491878 175.59151034 -59.9375 166.5625 C-60.79147034 156.1420584 -65.81832041 148.36133153 -72.375 140.375 C-79.03596351 131.79302531 -78.53176791 119.89531057 -78.4375 109.5625 C-78.44910156 108.29470703 -78.46070313 107.02691406 -78.47265625 105.72070312 C-78.44765572 97.59136315 -78.22083494 89.1020863 -75.0625 81.5 C-71.99266052 78.53885721 -68.81039427 76.50339743 -65.0625 74.5 C-63.5775 73.51 -63.5775 73.51 -62.0625 72.5 C-62.00490886 60.92007557 -62.00490886 60.92007557 -66.0625 50.5 C-68.72511339 49.0529275 -71.10819274 48.32333153 -74.0625 47.5 C-74.93449077 40.56040681 -74.75170969 35.57642378 -70.625 29.75 C-61.66744799 18.8088776 -51.32280141 12.02293958 -38.3125 6.8125 C-37.61068604 6.52689209 -36.90887207 6.24128418 -36.18579102 5.94702148 C-24.40028945 1.4192357 -12.56482931 -0.0633268 0 0 Z " fill="#FAFAFA" transform="translate(134.0625,24.5)"/>
<path d="M0 0 C0.66 0.33 1.32 0.66 2 1 C1.67773438 1.69996094 1.35546875 2.39992187 1.0234375 3.12109375 C-0.09221349 6.25939443 -0.33299329 8.73976945 -0.375 12.0625 C-0.40335938 13.08472656 -0.43171875 14.10695312 -0.4609375 15.16015625 C-0.19823738 18.07419661 -0.19823738 18.07419661 1.625 20.33203125 C6.47218783 23.73622402 12.36781527 22.77470814 18 22 C21.85990006 20.8345107 25.41409914 19.16457216 29.0390625 17.41015625 C33.73308651 15.17461183 37.78454269 14.28062658 43 15 C44.50390625 16.5625 44.50390625 16.5625 45.9375 18.5 C48.35472385 21.64174983 48.72948045 21.93891494 52.875 22.875 C57.43704251 22.51142166 59.75355421 19.85924528 62.65234375 16.53125 C66.3365096 14.12826662 69.73020972 14.34158446 74 15 C77.12903175 16.06052783 80.00062481 17.49607291 82.9375 19 C92.06165792 23.37469616 92.06165792 23.37469616 102 23 C104.95733901 21.76777541 106.37110863 20.80857462 108.3125 18.3125 C110.33349465 11.51460889 108.68673338 6.26904455 106 0 C113.36526575 3.29763035 120.06398719 9.46848888 123 17 C124.13272752 25.65351141 122.65387461 33.75490733 117.5 40.875 C112.09963984 46.47008468 105.33889828 46.98613558 97.88671875 47.20703125 C88.37621745 47.33843286 78.94383016 47.0417999 69.484375 46.0234375 C68.25460938 46.01183594 68.25460938 46.01183594 67 46 C66.01 46.99 66.01 46.99 65 48 C62.80102539 48.25878906 62.80102539 48.25878906 60.09765625 48.265625 C59.12505859 48.26820313 58.15246094 48.27078125 57.15039062 48.2734375 C56.13138672 48.26570313 55.11238281 48.25796875 54.0625 48.25 C53.04736328 48.25773437 52.03222656 48.26546875 50.98632812 48.2734375 C50.01244141 48.27085937 49.03855469 48.26828125 48.03515625 48.265625 C47.1419165 48.26336914 46.24867676 48.26111328 45.32836914 48.25878906 C43 48 43 48 40 46 C37.60048274 45.98232438 37.60048274 45.98232438 34.8125 46.375 C28.12160196 46.99354976 21.46871332 47.18947567 14.75 47.25 C13.73268799 47.2711084 12.71537598 47.2922168 11.66723633 47.31396484 C3.7471195 47.3514061 -2.59628293 46.18351661 -9.3125 41.875 C-13.87125379 36.99819362 -16.15726156 31.81153354 -16.625 25.125 C-16.22927901 16.35091053 -10.81017036 9.16634409 -4.61328125 3.33984375 C-3 2 -3 2 0 0 Z " fill="#191919" transform="translate(80,129)"/>
<path d="M0 0 C4.52657485 1.19561124 8.58406007 1.29826737 13.23828125 1.25390625 C14.44967773 1.26550781 14.44967773 1.26550781 15.68554688 1.27734375 C19.63668289 1.26460842 23.21227223 1.01676032 27.0390625 0 C30.4167141 -0.89439373 33.0852556 -1.23868159 36.55078125 -1.18359375 C37.90429688 -1.17392578 37.90429688 -1.17392578 39.28515625 -1.1640625 C41.58786946 -1.01030991 43.5914641 -0.64133824 45.80078125 0.00390625 C43.80386049 6.0360555 40.0797907 8.72109535 34.80078125 12.00390625 C23.97579668 16.92166868 11.10371809 19.59437155 -0.44921875 15.56640625 C-7.18125745 12.45673937 -14.28357351 6.97610138 -17.19921875 0.00390625 C-11.47430167 -1.47349171 -5.65638097 -1.76114426 0 0 Z " fill="#1A1A1A" transform="translate(120.19921875,177.99609375)"/>
<path d="M0 0 C2.98591724 1.97266335 5.83948525 4.0705658 8.66796875 6.26171875 C10.85233437 7.84056207 13.07205227 8.6505634 15.5703125 9.63671875 C17.5703125 11.63671875 17.5703125 11.63671875 18.0078125 13.88671875 C17.36763655 17.91068187 15.32356797 19.67696912 12.5703125 22.63671875 C5.32933787 21.78483938 0.18955876 16.61130879 -5.1171875 12.01171875 C-11.60088545 5.98483112 -11.60088545 5.98483112 -19.96875 4.1015625 C-24.41091828 5.06755783 -28.01230308 7.66570499 -31.79296875 10.10546875 C-34.4296875 11.63671875 -34.4296875 11.63671875 -37.4296875 11.63671875 C-37.4921875 9.01171875 -37.4921875 9.01171875 -36.4296875 5.63671875 C-26.5018048 -3.40242336 -12.09045396 -6.78387208 0 0 Z " fill="#1A1A1A" transform="translate(112.4296875,79.36328125)"/>
<path d="M0 0 C3.12869056 2.19779495 3.8124692 2.79034334 5 6.5625 C4.979375 7.42875 4.95875 8.295 4.9375 9.1875 C0.43781028 8.76565409 -2.5324908 6.79513262 -6.1953125 4.34375 C-10.11784289 1.91473536 -13.54765511 1.68794514 -18.0625 2.1875 C-20.66567162 3.73767036 -22.75369474 5.72563005 -24.9375 7.8125 C-26.15985811 8.9159839 -27.38511407 10.01626646 -28.61328125 11.11328125 C-29.20189941 11.6438916 -29.79051758 12.17450195 -30.39697266 12.72119141 C-32.55125776 14.61779597 -34.77973443 16.34613601 -37.125 18 C-37.77597656 18.46019531 -38.42695313 18.92039062 -39.09765625 19.39453125 C-41.76403989 20.47062644 -43.3564439 20.03146799 -46.0625 19.1875 C-47.875 17.5625 -47.875 17.5625 -49.0625 15.1875 C-49.25 11.4375 -49.25 11.4375 -49.0625 8.1875 C-48.52882812 7.90777344 -47.99515625 7.62804687 -47.4453125 7.33984375 C-43.04021175 4.96962518 -38.92665166 2.43883079 -34.875 -0.5 C-23.57508508 -8.49686287 -11.57589841 -6.98956782 0 0 Z " fill="#1B1B1B" transform="translate(188.0625,81.8125)"/>
<path d="M0 0 C2.24614199 1.49742799 3.54144643 2.67254632 4.69921875 5.1328125 C4.88671875 8.3828125 4.88671875 8.3828125 4.69921875 11.1328125 C5.87484375 11.5040625 5.87484375 11.5040625 7.07421875 11.8828125 C10.02238983 13.28670349 10.60169645 14.13956987 11.69921875 17.1328125 C9.00338914 16.65707786 6.61933638 16.10047916 4.07421875 15.0703125 C-6.59276584 12.10726122 -14.82841387 15.34268594 -24.30078125 20.1328125 C-23.97078125 19.5553125 -23.64078125 18.9778125 -23.30078125 18.3828125 C-22.03002227 15.93397388 -22.03002227 15.93397388 -22.30078125 12.1328125 C-23.29078125 11.4728125 -24.28078125 10.8128125 -25.30078125 10.1328125 C-24.86612989 5.20676377 -22.7045115 2.61390026 -19.30078125 -0.8671875 C-12.88126105 -4.68419951 -6.17991029 -3.47240539 0 0 Z " fill="#1A1A1A" transform="translate(174.30078125,105.8671875)"/>
<path d="M0 0 C3.47960434 2.3724575 5.4191336 4.34338424 7.75 7.875 C7.75 10.625 7.75 10.625 6.75 12.875 C5.76 13.535 4.77 14.195 3.75 14.875 C4.245 15.7721875 4.245 15.7721875 4.75 16.6875 C5.75 18.875 5.75 18.875 5.75 21.875 C4.81994141 21.2253125 4.81994141 21.2253125 3.87109375 20.5625 C-4.14028839 15.52477498 -10.91328318 14.79650136 -20.25 15.875 C-23.46840006 16.6275189 -26.191808 17.58734021 -29.25 18.875 C-27.578125 15.03125 -27.578125 15.03125 -24.625 13.625 C-23.84125 13.3775 -23.0575 13.13 -22.25 12.875 C-22.3325 11.988125 -22.415 11.10125 -22.5 10.1875 C-22.18789433 6.05209988 -21.19675381 4.74420766 -18.25 1.875 C-12.42856267 -2.05108564 -6.50950429 -2.25328995 0 0 Z " fill="#1A1A1A" transform="translate(111.25,104.125)"/>
<path d="M0 0 C2.38629093 0.30763773 2.38629093 0.30763773 5.03515625 0.265625 C6.00904297 0.26820313 6.98292969 0.27078125 7.98632812 0.2734375 C9.00146484 0.26570312 10.01660156 0.25796875 11.0625 0.25 C12.59100586 0.26160156 12.59100586 0.26160156 14.15039062 0.2734375 C15.12298828 0.27085937 16.09558594 0.26828125 17.09765625 0.265625 C17.98976807 0.26336914 18.88187988 0.26111328 19.80102539 0.25878906 C22.20723345 0.20584252 22.20723345 0.20584252 24 -2 C26.5546875 -2.01171875 26.5546875 -2.01171875 29.875 -1.6875 C36.20640409 -1.13350214 42.52641029 -0.73881775 48.875 -0.4375 C49.77331543 -0.39391357 50.67163086 -0.35032715 51.59716797 -0.30541992 C53.7313796 -0.20224499 55.86568048 -0.10091853 58 0 C58 0.33 58 0.66 58 1 C55.06267381 1.17045623 52.1252614 1.33732445 49.1875 1.5 C48.31762451 1.54842041 47.44774902 1.59684082 46.55151367 1.64672852 C41.19266013 1.9296664 35.885026 2.06835716 30.51953125 1.83984375 C27.76903871 1.93202675 27.76903871 1.93202675 24.296875 2.98828125 C19.65210575 4.21482205 15.21973542 4.29579954 10.4375 4.25 C9.62603516 4.25773438 8.81457031 4.26546875 7.97851562 4.2734375 C2.95813652 4.25722966 -1.17199604 3.50506236 -6 2 C-11.06646377 1.52172582 -16.01936043 1.97833034 -21 3 C-21 2.34 -21 1.68 -21 1 C-26.94 1 -32.88 1 -39 1 C-39 0.67 -39 0.34 -39 0 C-38.33468262 -0.02505615 -37.66936523 -0.0501123 -36.98388672 -0.07592773 C-33.94742513 -0.19251136 -30.91122654 -0.31495351 -27.875 -0.4375 C-26.82828125 -0.47681641 -25.7815625 -0.51613281 -24.703125 -0.55664062 C-2.22223128 -1.48148752 -2.22223128 -1.48148752 0 0 Z " fill="#C5C5C5" transform="translate(123,176)"/>
<path d="M0 0 C2.58885171 0.29991069 5.09149082 0.50865225 7.6875 0.625 C8.38939453 0.66367188 9.09128906 0.70234375 9.81445312 0.7421875 C11.54254655 0.8362334 13.27123675 0.9191968 15 1 C15 1.33 15 1.66 15 2 C7.43910933 3.87472904 1.52216128 4.50738709 -6 2 C-11.08813236 1.67048286 -16.00001322 1.97436169 -21 3 C-21 2.34 -21 1.68 -21 1 C-26.94 1 -32.88 1 -39 1 C-39 0.67 -39 0.34 -39 0 C-38.33468262 -0.02505615 -37.66936523 -0.0501123 -36.98388672 -0.07592773 C-33.94742513 -0.19251136 -30.91122654 -0.31495351 -27.875 -0.4375 C-26.82828125 -0.47681641 -25.7815625 -0.51613281 -24.703125 -0.55664062 C-2.22223128 -1.48148752 -2.22223128 -1.48148752 0 0 Z " fill="#D6D6D6" transform="translate(123,176)"/>
<path d="M0 0 C0.33 0 0.66 0 1 0 C1.10853983 2.22808159 1.18583307 4.45769932 1.25 6.6875 C1.29640625 7.92886719 1.3428125 9.17023438 1.390625 10.44921875 C0.93347104 14.6047482 -0.08293554 16.07771717 -3 19 C-4.051875 19.763125 -5.10375 20.52625 -6.1875 21.3125 C-9.95771026 24.91514536 -9.82738197 26.90776814 -10 32 C-10.99 31.67 -11.98 31.34 -13 31 C-13.41270904 27.62954287 -13.64889327 25.04119802 -11.8046875 22.08203125 C-9.66558656 19.5613319 -7.71477985 17.43280248 -4.87109375 15.7109375 C-2.14454454 13.21776724 -2.21661898 10.9840626 -1.8125 7.375 C-1.06758448 1.06758448 -1.06758448 1.06758448 0 0 Z " fill="#191919" transform="translate(129,110)"/>
<path d="M0 0 C0.99 0.495 0.99 0.495 2 1 C2.23970619 3.01530756 2.41608648 5.03827504 2.5625 7.0625 C3.28247843 12.52233639 4.3666774 15.08918378 8.5625 18.6875 C10.04115536 19.79235129 11.52020791 20.89667165 13 22 C14.36952673 24.73905345 14.12621361 26.97087332 14 30 C13.67 30.66 13.34 31.32 13 32 C12.34 32 11.68 32 11 32 C11.04125 30.865625 11.0825 29.73125 11.125 28.5625 C10.77226029 25.24327711 10.26231705 24.229695 7.70703125 21.9921875 C6.79308594 21.31414062 5.87914062 20.63609375 4.9375 19.9375 C1.30057654 16.99899001 0.13083298 15.77415963 -0.66015625 11.09375 C-0.73334943 7.37053981 -0.43845842 3.69766601 0 0 Z " fill="#1B1B1B" transform="translate(140,110)"/>
<path d="M0 0 C0.99 0 1.98 0 3 0 C3.33 0.99 3.66 1.98 4 3 C4.33 2.67 4.66 2.34 5 2 C7.67058851 1.85884839 10.32432238 1.95752893 13 2 C13 3.65 13 5.3 13 7 C12.21625 6.814375 11.4325 6.62875 10.625 6.4375 C8.02910225 5.74037734 8.02910225 5.74037734 6 7 C6 7.66 6 8.32 6 9 C3.53199953 7.84826645 1.95216435 6.95216435 0 5 C-0.125 2.375 -0.125 2.375 0 0 Z " fill="#373737" transform="translate(195,91)"/>
<path d="M0 0 C3.28249204 0.5659469 4.91568542 1.38577494 7 4 C7.36328125 6.12109375 7.36328125 6.12109375 7.3125 8.4375 C7.30863281 9.19933594 7.30476562 9.96117188 7.30078125 10.74609375 C6.9739386 13.19529127 6.21954601 14.86700917 5 17 C4.34 17 3.68 17 3 17 C2.95101562 16.10796875 2.90203125 15.2159375 2.8515625 14.296875 C2.77679688 13.12640625 2.70203125 11.9559375 2.625 10.75 C2.55539063 9.58984375 2.48578125 8.4296875 2.4140625 7.234375 C2.03751692 4.29305666 1.5225877 2.50050989 0 0 Z " fill="#292929" transform="translate(185,100)"/>
<path d="M0 0 C0.99 0.33 1.98 0.66 3 1 C2.34 1.66 1.68 2.32 1 3 C0.54152311 5.36030696 0.17856869 7.7398174 -0.125 10.125 C-0.37636719 12.04699219 -0.37636719 12.04699219 -0.6328125 14.0078125 C-0.75398438 14.99523437 -0.87515625 15.98265625 -1 17 C-4.00641201 14.36121989 -4.80440149 12.11147811 -5.21484375 8.07421875 C-4.82814051 4.34077475 -2.61766441 2.55381894 0 0 Z " fill="#161616" transform="translate(80,100)"/>
<path d="M0 0 C0 0.33 0 0.66 0 1 C-4.62 1.66 -9.24 2.32 -14 3 C-14 2.34 -14 1.68 -14 1 C-19.94 1 -25.88 1 -32 1 C-32 0.67 -32 0.34 -32 0 C-28.35471652 -0.19937616 -24.70877772 -0.38229958 -21.0625 -0.5625 C-20.04091797 -0.61857422 -19.01933594 -0.67464844 -17.96679688 -0.73242188 C-11.82995694 -1.02651964 -6.08581583 -0.85671026 0 0 Z " fill="#A4A4A4" transform="translate(116,176)"/>
<path d="M0 0 C7.26 0.33 14.52 0.66 22 1 C22 1.33 22 1.66 22 2 C18.89738494 2.25494218 15.79325198 2.47447008 12.6875 2.6875 C11.36588867 2.79674805 11.36588867 2.79674805 10.01757812 2.90820312 C9.17001953 2.96298828 8.32246094 3.01777344 7.44921875 3.07421875 C6.66893311 3.13182373 5.88864746 3.18942871 5.0847168 3.2487793 C3 3 3 3 0 0 Z " fill="#272727" transform="translate(120,174)"/>
<path d="M0 0 C4.95 0 9.9 0 15 0 C15 0.33 15 0.66 15 1 C13.4176994 1.33820166 11.83410625 1.67035939 10.25 2 C8.92742187 2.2784375 8.92742187 2.2784375 7.578125 2.5625 C5 3 5 3 1 3 C0.67 2.01 0.34 1.02 0 0 Z " fill="#C9C9C9" transform="translate(123,177)"/>
<path d="M0 0 C0.33 0.66 0.66 1.32 1 2 C-0.09283577 3.03295436 -1.19970579 4.05107835 -2.3125 5.0625 C-2.92738281 5.63097656 -3.54226562 6.19945312 -4.17578125 6.78515625 C-4.77777344 7.18605469 -5.37976563 7.58695313 -6 8 C-6.99 7.67 -7.98 7.34 -9 7 C-6.19195732 4.03595495 -3.81684226 1.55500981 0 0 Z " fill="#1F1F1F" transform="translate(182,221)"/>
<path d="M0 0 C0.99 0.33 1.98 0.66 3 1 C2.01 3.31 1.02 5.62 0 8 C-0.99 8 -1.98 8 -3 8 C-2.25 2.25 -2.25 2.25 0 0 Z " fill="#282828" transform="translate(78,83)"/>
<path d="M0 0 C3.375 0.25 3.375 0.25 7 1 C8.4375 3.0625 8.4375 3.0625 9 5 C5.65626525 4.44271087 2.96687001 3.64826111 0 2 C0 1.34 0 0.68 0 0 Z " fill="#2A2A2A" transform="translate(177,118)"/>
<path d="M0 0 C2.64 0 5.28 0 8 0 C8 0.66 8 1.32 8 2 C5.36 2.66 2.72 3.32 0 4 C0 2.68 0 1.36 0 0 Z " fill="#D7D7D7" transform="translate(60,94)"/>
<path d="M0 0 C2.88437779 1.29299694 4.87219421 2.65941363 7 5 C6.01 6.485 6.01 6.485 5 8 C4.34 8 3.68 8 3 8 C2.01 5.36 1.02 2.72 0 0 Z " fill="#2B2B2B" transform="translate(186,129)"/>
<path d="M0 0 C0.99 0 1.98 0 3 0 C1.70700306 2.88437779 0.34058637 4.87219421 -2 7 C-2.66 6.67 -3.32 6.34 -4 6 C-2.1875 3 -2.1875 3 0 0 Z " fill="#222222" transform="translate(142,146)"/>
<path d="M0 0 C2.0625 0.4375 2.0625 0.4375 4 1 C2.35 2.65 0.7 4.3 -1 6 C-1.66 5.67 -2.32 5.34 -3 5 C-1.125 1.125 -1.125 1.125 0 0 Z " fill="#1F1F1F" transform="translate(122,127)"/>
<path d="M0 0 C0 2.97 0 5.94 0 9 C-0.66 9 -1.32 9 -2 9 C-2.33 6.36 -2.66 3.72 -3 1 C-1 0 -1 0 0 0 Z " fill="#2D2D2D" transform="translate(78,105)"/>
<path d="M0 0 C0 1.65 0 3.3 0 5 C-2.02045442 4.39816251 -4.02111039 3.72693904 -6 3 C-6.33 2.34 -6.66 1.68 -7 1 C-1.125 0 -1.125 0 0 0 Z " fill="#EAEAEA" transform="translate(208,93)"/>
<path d="M0 0 C0.8971875 0.5259375 0.8971875 0.5259375 1.8125 1.0625 C-3.8125 3.1875 -3.8125 3.1875 -7.1875 2.0625 C-4.72093412 -0.40406588 -3.34389711 -1.43309876 0 0 Z " fill="#272727" transform="translate(114.1875,145.9375)"/>
<path d="M0 0 C0.99 0.33 1.98 0.66 3 1 C2 4 2 4 -1.0625 5.6875 C-2.031875 6.120625 -3.00125 6.55375 -4 7 C-2.79618552 4.50638429 -1.54571278 2.31856917 0 0 Z " fill="#0C0C0C" transform="translate(154,119)"/>
<path d="M0 0 C2.97 0.495 2.97 0.495 6 1 C6 2.65 6 4.3 6 6 C3.96166576 4.7260411 1.96147874 3.38938077 0 2 C0 1.34 0 0.68 0 0 Z " fill="#222222" transform="translate(201,99)"/>
<path d="M0 0 C3.68754757 0.49831724 5.60490662 1.10067643 8 4 C5.125 4.125 5.125 4.125 2 4 C1.34 3.34 0.68 2.68 0 2 C0 1.34 0 0.68 0 0 Z " fill="#111111" transform="translate(201,96)"/>
<path d="M0 0 C0 0.33 0 0.66 0 1 C-1.45635371 1.22174933 -2.91522956 1.42698698 -4.375 1.625 C-5.18710938 1.74101563 -5.99921875 1.85703125 -6.8359375 1.9765625 C-7.55007812 1.98429687 -8.26421875 1.99203125 -9 2 C-9.66 1.34 -10.32 0.68 -11 0 C-7.18243176 -1.37432457 -3.92744671 -0.67975039 0 0 Z " fill="#2C2C2C" transform="translate(100,77)"/>
<path d="M0 0 C3.625 -0.1875 3.625 -0.1875 7 0 C4.64031256 2.09749995 3.45383006 2.96905704 0.25 3.1875 C-0.86375 3.0946875 -0.86375 3.0946875 -2 3 C-1.34 2.01 -0.68 1.02 0 0 Z " fill="#F3F3F3" transform="translate(148,175)"/>
<path d="M0 0 C2.97 0.495 2.97 0.495 6 1 C3.36095629 2.41377341 0.92879371 3.37240135 -2 4 C-1.34 2.68 -0.68 1.36 0 0 Z " fill="#252525" transform="translate(84,119)"/>
<path d="M0 0 C1.98 0 3.96 0 6 0 C6 1.32 6 2.64 6 4 C4.35 3.67 2.7 3.34 1 3 C0.67 2.01 0.34 1.02 0 0 Z " fill="#272727" transform="translate(62,97)"/>
<path d="M0 0 C0.99 0.33 1.98 0.66 3 1 C3.33 2.98 3.66 4.96 4 7 C3.67 6.01 3.34 5.02 3 4 C0.98491642 3.26676204 0.98491642 3.26676204 -1 3 C-0.67 2.01 -0.34 1.02 0 0 Z " fill="#0E0E0E" transform="translate(189,84)"/>
<path d="M0 0 C0.33 1.32 0.66 2.64 1 4 C-0.98 4 -2.96 4 -5 4 C-5 3.34 -5 2.68 -5 2 C-3.35 1.34 -1.7 0.68 0 0 Z " fill="#D5D5D5" transform="translate(207,82)"/>
</svg>
